<svg width="93" height="24" viewBox="0 0 93 24" fill="none" xmlns="http://www.w3.org/2000/svg">
<path d="M7.23197 22.944H3.23197V0.32003H7.23197V22.944ZM-2.72989e-05 3.64803V0.32003H10.464V3.64803H-2.72989e-05ZM-2.72989e-05 22.944V19.616H10.464V22.944H-2.72989e-05ZM13.191 0.32003H21.223C23.207 0.32003 24.7963 0.650696 25.991 1.31203C27.207 1.97336 28.0816 2.86936 28.615 4.00003C29.1696 5.10936 29.447 6.35736 29.447 7.74403C29.447 9.08803 29.1696 10.3254 28.615 11.456C28.0816 12.5867 27.207 13.4934 25.991 14.176C24.7963 14.8374 23.207 15.168 21.223 15.168H17.191V22.944H13.191V0.32003ZM21.095 11.808C22.311 11.808 23.2283 11.648 23.847 11.328C24.4656 11.008 24.8816 10.5494 25.095 9.95203C25.3296 9.33336 25.447 8.59736 25.447 7.74403C25.447 6.86936 25.3296 6.13336 25.095 5.53603C24.8816 4.9387 24.4656 4.48003 23.847 4.16003C23.2283 3.84003 22.311 3.68003 21.095 3.68003H17.191V11.808H21.095ZM42.5455 6.43203C42.4388 5.40803 42.0548 4.64003 41.3935 4.12803C40.7321 3.61603 39.7081 3.36003 38.3215 3.36003C36.9348 3.36003 35.9001 3.63736 35.2175 4.19203C34.5561 4.7467 34.2255 5.50403 34.2255 6.46403C34.2255 6.9547 34.3428 7.3707 34.5775 7.71203C34.8335 8.05336 35.1535 8.34136 35.5375 8.57603C35.9215 8.78936 36.3268 8.9707 36.7535 9.12003C37.1801 9.26936 37.5748 9.39736 37.9375 9.50403L40.0175 10.08C40.6361 10.272 41.3295 10.5174 42.0975 10.816C42.8868 11.0934 43.6441 11.4667 44.3695 11.936C45.1161 12.4054 45.7241 13.0134 46.1935 13.76C46.6628 14.5067 46.8975 15.4454 46.8975 16.576C46.8975 17.92 46.5668 19.104 45.9055 20.128C45.2655 21.152 44.3055 21.952 43.0255 22.528C41.7668 23.0827 40.1775 23.36 38.2575 23.36C35.5055 23.36 33.4148 22.7627 31.9855 21.568C30.5775 20.352 29.8201 18.7094 29.7135 16.64H33.7455C33.7881 17.4294 33.9908 18.0694 34.3535 18.56C34.7161 19.0507 35.2281 19.4134 35.8895 19.648C36.5508 19.8827 37.3401 20 38.2575 20C39.7508 20 40.9028 19.6907 41.7135 19.072C42.5241 18.4534 42.9295 17.6 42.9295 16.512C42.9295 15.8934 42.7588 15.4027 42.4175 15.04C42.0761 14.656 41.6175 14.3467 41.0415 14.112C40.4655 13.856 39.8148 13.632 39.0895 13.44L36.4975 12.672C34.6201 12.1387 33.1161 11.392 31.9855 10.432C30.8761 9.4507 30.3215 8.16003 30.3215 6.56003C30.3215 5.15203 30.6628 3.96803 31.3455 3.00803C32.0495 2.0267 33.0095 1.28003 34.2255 0.76803C35.4628 0.25603 36.8601 3.05176e-05 38.4175 3.05176e-05C40.1028 3.05176e-05 41.5321 0.277363 42.7055 0.832029C43.9001 1.36536 44.8175 2.1227 45.4575 3.10403C46.0975 4.06403 46.4281 5.17336 46.4495 6.43203H42.5455ZM66.4927 0.32003V14.816C66.4927 16.5227 66.1621 18.0267 65.5007 19.328C64.8394 20.608 63.8367 21.6 62.4927 22.304C61.1701 23.008 59.4847 23.36 57.4367 23.36C55.4101 23.36 53.7247 23.008 52.3807 22.304C51.0581 21.6 50.0661 20.608 49.4047 19.328C48.7434 18.0267 48.4127 16.5227 48.4127 14.816V0.32003H52.4127V14.592C52.4127 15.7014 52.5621 16.6614 52.8607 17.472C53.1594 18.2827 53.6714 18.912 54.3967 19.36C55.1434 19.7867 56.1567 20 57.4367 20C58.7381 20 59.7514 19.7867 60.4767 19.36C61.2234 18.912 61.7461 18.2827 62.0447 17.472C62.3434 16.6614 62.4927 15.7014 62.4927 14.592V0.32003H66.4927ZM74.9342 0.32003L80.8862 17.952H81.0142L87.1582 0.32003H92.5342V22.944H88.7262V6.46403H88.6302L82.9022 22.944H78.9342L73.3662 6.46403H73.2702V22.944H69.4622V0.32003H74.9342Z" fill="#7D7D7D"/>
</svg>
