<svg width="85" height="32" viewBox="0 0 85 32" fill="none" xmlns="http://www.w3.org/2000/svg">
<path d="M0.000107467 -1.90735e-06H8.32011V24H0.000107467V-1.90735e-06ZM9.58136 15.36C9.58136 10.592 13.0054 6.72 20.4934 6.72H27.7894C35.2774 6.72 38.7014 10.592 38.7014 15.36C38.7014 20.544 35.2774 24 27.7894 24H20.4934C13.0054 24 9.58136 20.544 9.58136 15.36ZM20.8134 12.8C18.6374 12.8 17.9334 14.208 17.9334 15.36C17.9334 16.512 18.6374 17.92 20.8134 17.92H27.4694C29.6454 17.92 30.3494 16.512 30.3494 15.36C30.3494 14.208 29.6454 12.8 27.4694 12.8H20.8134ZM60.2914 6.72V22.688C60.2914 27.872 56.8674 31.36 49.3794 31.36H35.3314V25.28H49.9234C51.5234 25.28 51.9714 24.704 51.9714 24H44.8034C37.3154 24 33.8914 20.544 33.8914 15.36C33.8914 10.592 37.3154 6.72 44.8034 6.72H60.2914ZM42.2434 15.36C42.2434 16.512 42.9474 17.92 45.1234 17.92H51.9714V12.8H45.1234C42.9474 12.8 42.2434 14.208 42.2434 15.36ZM55.8264 15.36C55.8264 10.592 59.2504 6.72 66.7384 6.72H74.0344C81.5224 6.72 84.9464 10.592 84.9464 15.36C84.9464 20.544 81.5224 24 74.0344 24H66.7384C59.2504 24 55.8264 20.544 55.8264 15.36ZM67.0584 12.8C64.8824 12.8 64.1784 14.208 64.1784 15.36C64.1784 16.512 64.8824 17.92 67.0584 17.92H73.7144C75.8904 17.92 76.5944 16.512 76.5944 15.36C76.5944 14.208 75.8904 12.8 73.7144 12.8H67.0584Z" fill="#7D7D7D"/>
</svg>
