<svg width="143" height="30" viewBox="0 0 143 30" fill="none" xmlns="http://www.w3.org/2000/svg">
<path d="M-8.70228e-06 -2.28882e-05H4.09599V23.04H-8.70228e-06V-2.28882e-05ZM13.3752 23.264C11.8179 23.264 10.4312 22.9333 9.21524 22.272C7.99924 21.5893 7.03924 20.64 6.33524 19.424C5.65257 18.1866 5.31124 16.736 5.31124 15.072C5.31124 13.3866 5.66324 11.9253 6.36724 10.688C7.09257 9.45064 8.07391 8.50131 9.31124 7.83998C10.5486 7.15731 11.9352 6.81598 13.4712 6.81598C15.0072 6.81598 16.3939 7.15731 17.6312 7.83998C18.8686 8.50131 19.8499 9.45064 20.5752 10.688C21.3006 11.904 21.6632 13.344 21.6632 15.008C21.6632 16.6933 21.2899 18.1546 20.5432 19.392C19.8179 20.6293 18.8259 21.5893 17.5672 22.272C16.3299 22.9333 14.9326 23.264 13.3752 23.264ZM13.3432 19.584C14.0046 19.584 14.6339 19.424 15.2312 19.104C15.8286 18.7626 16.3192 18.2613 16.7032 17.6C17.0872 16.9173 17.2792 16.0533 17.2792 15.008C17.2792 14.0053 17.0979 13.1733 16.7352 12.512C16.3726 11.8293 15.8926 11.328 15.2952 11.008C14.7192 10.6666 14.0899 10.496 13.4072 10.496C12.7459 10.496 12.1272 10.6666 11.5512 11.008C10.9966 11.328 10.5486 11.8293 10.2072 12.512C9.88724 13.1733 9.72724 14.0266 9.72724 15.072C9.72724 16.0746 9.88724 16.9173 10.2072 17.6C10.5272 18.2613 10.9646 18.7626 11.5192 19.104C12.0739 19.424 12.6819 19.584 13.3432 19.584ZM34.3667 7.03998H38.0787V20.672C38.0787 22.4853 37.6307 24.0426 36.7347 25.344C35.8387 26.6666 34.5374 27.68 32.8307 28.384C31.1454 29.088 29.1187 29.44 26.7507 29.44L26.1107 25.984C28.6921 25.9413 30.6441 25.4826 31.9667 24.608C33.3107 23.7333 33.9827 22.4746 33.9827 20.832V20.768L34.5267 20.576C34.0147 21.3226 33.3107 21.9626 32.4147 22.496C31.5187 23.008 30.4521 23.264 29.2147 23.264C27.8067 23.264 26.5694 22.9226 25.5027 22.24C24.4361 21.5573 23.5934 20.608 22.9747 19.392C22.3774 18.1546 22.0787 16.704 22.0787 15.04C22.0787 13.376 22.3774 11.9253 22.9747 10.688C23.5934 9.45064 24.4361 8.50131 25.5027 7.83998C26.5694 7.15731 27.8067 6.81598 29.2147 6.81598C29.9401 6.81598 30.6121 6.92264 31.2307 7.13598C31.8707 7.32798 32.4254 7.59464 32.8947 7.93598C33.3854 8.25598 33.7907 8.61864 34.1107 9.02398L34.3667 7.03998ZM26.4947 15.04C26.4947 16.384 26.8361 17.472 27.5187 18.304C28.2014 19.1146 29.1187 19.52 30.2707 19.52C30.9321 19.52 31.5401 19.3493 32.0947 19.008C32.6494 18.6453 33.0974 18.1226 33.4387 17.44C33.8014 16.7573 33.9827 15.9573 33.9827 15.04C33.9827 14.08 33.8014 13.2693 33.4387 12.608C33.0974 11.9466 32.6387 11.4453 32.0627 11.104C31.5081 10.7413 30.9107 10.56 30.2707 10.56C29.1187 10.56 28.2014 10.976 27.5187 11.808C26.8361 12.6186 26.4947 13.696 26.4947 15.04ZM47.3477 23.264C45.7904 23.264 44.4037 22.9333 43.1877 22.272C41.9717 21.5893 41.0117 20.64 40.3077 19.424C39.6251 18.1866 39.2837 16.736 39.2837 15.072C39.2837 13.3866 39.6357 11.9253 40.3397 10.688C41.0651 9.45064 42.0464 8.50131 43.2837 7.83998C44.5211 7.15731 45.9077 6.81598 47.4437 6.81598C48.9797 6.81598 50.3664 7.15731 51.6037 7.83998C52.8411 8.50131 53.8224 9.45064 54.5477 10.688C55.2731 11.904 55.6357 13.344 55.6357 15.008C55.6357 16.6933 55.2624 18.1546 54.5157 19.392C53.7904 20.6293 52.7984 21.5893 51.5397 22.272C50.3024 22.9333 48.9051 23.264 47.3477 23.264ZM47.3157 19.584C47.9771 19.584 48.6064 19.424 49.2037 19.104C49.8011 18.7626 50.2917 18.2613 50.6757 17.6C51.0597 16.9173 51.2517 16.0533 51.2517 15.008C51.2517 14.0053 51.0704 13.1733 50.7077 12.512C50.3451 11.8293 49.8651 11.328 49.2677 11.008C48.6917 10.6666 48.0624 10.496 47.3797 10.496C46.7184 10.496 46.0997 10.6666 45.5237 11.008C44.9691 11.328 44.5211 11.8293 44.1797 12.512C43.8597 13.1733 43.6997 14.0266 43.6997 15.072C43.6997 16.0746 43.8597 16.9173 44.1797 17.6C44.4997 18.2613 44.9371 18.7626 45.4917 19.104C46.0464 19.424 46.6544 19.584 47.3157 19.584ZM57.3952 7.03998H61.4912V23.04H57.3952V7.03998ZM59.4752 4.99198C58.7072 4.99198 58.0779 4.75731 57.5872 4.28798C57.0966 3.79731 56.8512 3.19998 56.8512 2.49598C56.8512 1.79198 57.0966 1.20531 57.5872 0.735977C58.0779 0.24531 58.7072 -2.28882e-05 59.4752 -2.28882e-05C60.2006 -2.28882e-05 60.8086 0.24531 61.2992 0.735977C61.8112 1.20531 62.0672 1.79198 62.0672 2.49598C62.0672 3.19998 61.8112 3.79731 61.2992 4.28798C60.8086 4.75731 60.2006 4.99198 59.4752 4.99198ZM67.6402 20.64L68.1522 20.576V29.44H64.0562V7.03998H67.7682L68.0242 9.02398C68.4936 8.40531 69.1549 7.88264 70.0082 7.45598C70.8616 7.02931 71.8429 6.81598 72.9522 6.81598C74.3389 6.81598 75.5656 7.15731 76.6322 7.83998C77.6989 8.52264 78.5309 9.48264 79.1282 10.72C79.7469 11.936 80.0562 13.376 80.0562 15.04C80.0562 16.704 79.7469 18.1546 79.1282 19.392C78.5309 20.6293 77.6989 21.5893 76.6322 22.272C75.5869 22.9333 74.3602 23.264 72.9522 23.264C71.7149 23.264 70.6376 23.008 69.7202 22.496C68.8242 21.984 68.1309 21.3653 67.6402 20.64ZM75.6402 15.04C75.6402 13.696 75.2882 12.6186 74.5842 11.808C73.9016 10.976 73.0056 10.56 71.8962 10.56C71.2136 10.56 70.5842 10.7413 70.0082 11.104C69.4536 11.4453 69.0056 11.9466 68.6642 12.608C68.3229 13.248 68.1522 14.0586 68.1522 15.04C68.1522 16 68.3229 16.8106 68.6642 17.472C69.0056 18.1333 69.4536 18.6453 70.0082 19.008C70.5842 19.3493 71.2136 19.52 71.8962 19.52C73.0056 19.52 73.9016 19.1146 74.5842 18.304C75.2882 17.472 75.6402 16.384 75.6402 15.04ZM84.1412 17.824C84.2692 18.3573 84.4826 18.7626 84.7812 19.04C85.1012 19.3173 85.4532 19.52 85.8372 19.648C86.2426 19.7546 86.6479 19.808 87.0532 19.808C87.7999 19.808 88.3866 19.6693 88.8132 19.392C89.2399 19.0933 89.4532 18.72 89.4532 18.272C89.4532 17.888 89.3039 17.5893 89.0052 17.376C88.7066 17.1413 88.3226 16.9706 87.8532 16.864C87.3839 16.736 86.9039 16.608 86.4132 16.48C85.8372 16.3306 85.2186 16.1706 84.5572 16C83.9172 15.808 83.3092 15.5413 82.7332 15.2C82.1572 14.8586 81.6772 14.4213 81.2932 13.888C80.9092 13.3333 80.7172 12.64 80.7172 11.808C80.7172 10.8266 80.9839 9.96264 81.5172 9.21598C82.0719 8.46931 82.8292 7.88264 83.7892 7.45598C84.7706 7.02931 85.9012 6.81598 87.1812 6.81598C88.6959 6.81598 89.9759 7.13598 91.0212 7.77598C92.0666 8.41598 92.8239 9.33331 93.2932 10.528L89.6772 11.552C89.5706 11.2533 89.3892 11.008 89.1332 10.816C88.8772 10.624 88.5679 10.4853 88.2052 10.4C87.8639 10.3146 87.5119 10.272 87.1492 10.272C86.5306 10.272 86.0186 10.4 85.6132 10.656C85.2079 10.8906 85.0052 11.2213 85.0052 11.648C85.0052 11.904 85.0799 12.1173 85.2292 12.288C85.3786 12.4373 85.5812 12.5653 85.8372 12.672C86.1146 12.7786 86.4239 12.8746 86.7652 12.96C87.1279 13.0453 87.5226 13.1413 87.9492 13.248C88.6106 13.4186 89.2719 13.6213 89.9332 13.856C90.6159 14.0693 91.2346 14.3466 91.7892 14.688C92.3652 15.0293 92.8239 15.488 93.1652 16.064C93.5066 16.64 93.6986 17.3653 93.7412 18.24C93.7412 19.1786 93.4746 20.032 92.9412 20.8C92.4079 21.5466 91.6399 22.144 90.6372 22.592C89.6346 23.04 88.4186 23.264 86.9892 23.264C85.3252 23.264 83.9066 22.912 82.7332 22.208C81.5812 21.504 80.8239 20.4053 80.4612 18.912L84.1412 17.824ZM109.014 23.04H105.27L104.982 21.376C104.47 21.9733 103.841 22.4426 103.094 22.784C102.369 23.104 101.59 23.264 100.758 23.264C99.5209 23.264 98.4542 22.9973 97.5582 22.464C96.6622 21.9306 95.9689 21.1626 95.4782 20.16C94.9876 19.136 94.7422 17.8773 94.7422 16.384V7.03998H98.8702V15.872C98.8702 17.088 99.1049 18.016 99.5742 18.656C100.065 19.2746 100.812 19.584 101.814 19.584C102.796 19.584 103.553 19.264 104.086 18.624C104.641 17.984 104.918 17.056 104.918 15.84V7.03998H109.014V23.04ZM111.015 7.03998H114.727L115.015 8.60798C115.527 8.07464 116.135 7.64798 116.839 7.32798C117.564 6.98664 118.354 6.81598 119.207 6.81598C120.231 6.81598 121.17 7.03998 122.023 7.48798C122.876 7.91464 123.559 8.53331 124.071 9.34398C124.647 8.55464 125.394 7.93598 126.311 7.48798C127.25 7.03998 128.263 6.81598 129.351 6.81598C130.61 6.81598 131.698 7.08264 132.615 7.61598C133.554 8.14931 134.279 8.92798 134.791 9.95198C135.303 10.9546 135.559 12.2026 135.559 13.696V23.04H131.463V14.24C131.463 13.024 131.196 12.1066 130.663 11.488C130.13 10.8693 129.372 10.56 128.391 10.56C127.388 10.56 126.599 10.88 126.023 11.52C125.468 12.16 125.191 13.088 125.191 14.304V23.04H121.095V14.24C121.095 13.024 120.85 12.1066 120.359 11.488C119.89 10.8693 119.164 10.56 118.183 10.56C117.18 10.56 116.412 10.88 115.879 11.52C115.367 12.1386 115.111 13.056 115.111 14.272V23.04H111.015V7.03998ZM139.681 23.264C138.892 23.264 138.241 23.0186 137.729 22.528C137.238 22.016 136.993 21.408 136.993 20.704C136.993 19.9786 137.238 19.3706 137.729 18.88C138.241 18.368 138.892 18.112 139.681 18.112C140.449 18.112 141.078 18.368 141.569 18.88C142.081 19.3706 142.337 19.9786 142.337 20.704C142.337 21.408 142.081 22.016 141.569 22.528C141.078 23.0186 140.449 23.264 139.681 23.264Z" fill="#7D7D7D"/>
</svg>
