<svg width="182" height="33" viewBox="0 0 182 33" fill="none" xmlns="http://www.w3.org/2000/svg">
<path d="M8.55566 26.0555H15.2223L23.5557 15.2222V8.55554" stroke="#7D7D7D" stroke-width="7.11111" stroke-linecap="square" stroke-linejoin="bevel"/>
<path d="M18.5557 3.55554H11.889L3.55566 14.3889V21.0555" stroke="#7D7D7D" stroke-width="7.11111" stroke-linecap="square" stroke-linejoin="bevel"/>
<path d="M38.0837 25.8055V4.94154H42.4677V22.1255H50.8517V25.8055H38.0837ZM58.9059 26.1895C57.5619 26.1895 56.3032 25.8695 55.1299 25.2295C53.9779 24.5682 53.0392 23.6189 52.3139 22.3815C51.5886 21.1442 51.2259 19.6509 51.2259 17.9015C51.2259 16.1522 51.5886 14.6589 52.3139 13.4215C53.0392 12.1842 53.9779 11.2349 55.1299 10.5735C56.3032 9.91221 57.5619 9.58154 58.9059 9.58154C60.2286 9.58154 61.4659 9.91221 62.6179 10.5735C63.7912 11.2349 64.7406 12.1842 65.4659 13.4215C66.1912 14.6589 66.5539 16.1522 66.5539 17.9015C66.5539 19.6509 66.1912 21.1442 65.4659 22.3815C64.7406 23.6189 63.7912 24.5682 62.6179 25.2295C61.4659 25.8695 60.2286 26.1895 58.9059 26.1895ZM58.9059 22.6375C59.5886 22.6375 60.1646 22.4455 60.6339 22.0615C61.1032 21.6775 61.4552 21.1335 61.6899 20.4295C61.9246 19.7042 62.0419 18.8615 62.0419 17.9015C62.0419 16.9415 61.9246 16.1095 61.6899 15.4055C61.4552 14.6802 61.1032 14.1255 60.6339 13.7415C60.1646 13.3362 59.5886 13.1335 58.9059 13.1335C58.2019 13.1335 57.6152 13.3362 57.1459 13.7415C56.6766 14.1255 56.3246 14.6802 56.0899 15.4055C55.8552 16.1095 55.7379 16.9415 55.7379 17.9015C55.7379 18.8615 55.8552 19.7042 56.0899 20.4295C56.3246 21.1335 56.6766 21.6775 57.1459 22.0615C57.6152 22.4455 58.2019 22.6375 58.9059 22.6375ZM73.5534 32.6215C72.3161 32.6215 71.1961 32.4722 70.1934 32.1735C69.1907 31.8962 68.4014 31.4589 67.8254 30.8615C67.2494 30.2642 66.9614 29.4962 66.9614 28.5575C66.9614 27.8962 67.1534 27.2882 67.5374 26.7335C67.9427 26.2002 68.4974 25.7309 69.2014 25.3255V25.1975C68.8174 24.9202 68.4761 24.5682 68.1774 24.1415C67.9001 23.6935 67.7614 23.1495 67.7614 22.5095C67.7614 21.9335 67.9321 21.3895 68.2734 20.8775C68.6361 20.3442 69.0521 19.9069 69.5214 19.5655V19.4375C68.9881 19.0322 68.4974 18.4775 68.0494 17.7735C67.6227 17.0482 67.4094 16.2269 67.4094 15.3095C67.4094 14.0509 67.7081 13.0055 68.3054 12.1735C68.9241 11.3202 69.7241 10.6802 70.7054 10.2535C71.6867 9.80554 72.7427 9.58154 73.8734 9.58154C74.3214 9.58154 74.7481 9.62421 75.1534 9.70954C75.5801 9.77354 75.9641 9.85887 76.3054 9.96554H82.0334V13.1975H79.3774C79.5694 13.4535 79.7294 13.7842 79.8574 14.1895C79.9854 14.5735 80.0494 14.9895 80.0494 15.4375C80.0494 16.6535 79.7721 17.6562 79.2174 18.4455C78.6627 19.2349 77.9161 19.8215 76.9774 20.2055C76.0601 20.5895 75.0254 20.7815 73.8734 20.7815C73.5747 20.7815 73.2547 20.7602 72.9134 20.7175C72.5934 20.6535 72.2521 20.5682 71.8894 20.4615C71.6761 20.6322 71.5161 20.8135 71.4094 21.0055C71.3027 21.1762 71.2494 21.4215 71.2494 21.7415C71.2494 22.1469 71.4307 22.4562 71.7934 22.6695C72.1774 22.8829 72.8067 22.9895 73.6814 22.9895H76.3374C78.2574 22.9895 79.7294 23.3095 80.7534 23.9495C81.7774 24.5682 82.2894 25.5709 82.2894 26.9575C82.2894 28.0455 81.9267 29.0162 81.2014 29.8695C80.4974 30.7229 79.4947 31.3949 78.1934 31.8855C76.8921 32.3762 75.3454 32.6215 73.5534 32.6215ZM74.2574 29.8375C75.0041 29.8375 75.6654 29.7415 76.2414 29.5495C76.8174 29.3789 77.2654 29.1229 77.5854 28.7815C77.9267 28.4615 78.0974 28.0989 78.0974 27.6935C78.0974 27.1602 77.8734 26.8082 77.4254 26.6375C76.9987 26.4669 76.3801 26.3815 75.5694 26.3815H73.7454C73.2547 26.3815 72.8387 26.3602 72.4974 26.3175C72.1561 26.2749 71.8467 26.2215 71.5694 26.1575C71.2281 26.4349 70.9721 26.7122 70.8014 26.9895C70.6521 27.2669 70.5774 27.5655 70.5774 27.8855C70.5774 28.5255 70.9081 29.0055 71.5694 29.3255C72.2521 29.6669 73.1481 29.8375 74.2574 29.8375ZM73.8734 18.1255C74.3214 18.1255 74.7161 18.0189 75.0574 17.8055C75.4201 17.5922 75.6974 17.2722 75.8894 16.8455C76.1027 16.4189 76.2094 15.9069 76.2094 15.3095C76.2094 14.7122 76.1027 14.2109 75.8894 13.8055C75.6974 13.4002 75.4201 13.0909 75.0574 12.8775C74.7161 12.6642 74.3214 12.5575 73.8734 12.5575C73.2121 12.5575 72.6574 12.7922 72.2094 13.2615C71.7614 13.7309 71.5374 14.4135 71.5374 15.3095C71.5374 15.9069 71.6334 16.4189 71.8254 16.8455C72.0387 17.2722 72.3161 17.5922 72.6574 17.8055C73.0201 18.0189 73.4254 18.1255 73.8734 18.1255ZM89.7222 26.1895C88.3782 26.1895 87.1195 25.8695 85.9462 25.2295C84.7942 24.5682 83.8555 23.6189 83.1302 22.3815C82.4048 21.1442 82.0422 19.6509 82.0422 17.9015C82.0422 16.1522 82.4048 14.6589 83.1302 13.4215C83.8555 12.1842 84.7942 11.2349 85.9462 10.5735C87.1195 9.91221 88.3782 9.58154 89.7222 9.58154C91.0448 9.58154 92.2822 9.91221 93.4342 10.5735C94.6075 11.2349 95.5568 12.1842 96.2822 13.4215C97.0075 14.6589 97.3702 16.1522 97.3702 17.9015C97.3702 19.6509 97.0075 21.1442 96.2822 22.3815C95.5568 23.6189 94.6075 24.5682 93.4342 25.2295C92.2822 25.8695 91.0448 26.1895 89.7222 26.1895ZM89.7222 22.6375C90.4048 22.6375 90.9808 22.4455 91.4502 22.0615C91.9195 21.6775 92.2715 21.1335 92.5062 20.4295C92.7408 19.7042 92.8582 18.8615 92.8582 17.9015C92.8582 16.9415 92.7408 16.1095 92.5062 15.4055C92.2715 14.6802 91.9195 14.1255 91.4502 13.7415C90.9808 13.3362 90.4048 13.1335 89.7222 13.1335C89.0182 13.1335 88.4315 13.3362 87.9622 13.7415C87.4928 14.1255 87.1408 14.6802 86.9062 15.4055C86.6715 16.1095 86.5542 16.9415 86.5542 17.9015C86.5542 18.8615 86.6715 19.7042 86.9062 20.4295C87.1408 21.1335 87.4928 21.6775 87.9622 22.0615C88.4315 22.4455 89.0182 22.6375 89.7222 22.6375ZM103.64 25.8055V4.94154H108.024V25.8055H103.64ZM110.773 31.7895V9.96554H114.357L114.677 11.5655H114.805C115.445 11.0109 116.16 10.5415 116.949 10.1575C117.739 9.77354 118.549 9.58154 119.381 9.58154C120.683 9.58154 121.792 9.92287 122.709 10.6055C123.627 11.2669 124.331 12.2055 124.821 13.4215C125.333 14.6162 125.589 16.0242 125.589 17.6455C125.589 19.4589 125.269 21.0055 124.629 22.2855C123.989 23.5442 123.157 24.5149 122.133 25.1975C121.131 25.8589 120.053 26.1895 118.901 26.1895C118.219 26.1895 117.547 26.0509 116.885 25.7735C116.224 25.4749 115.605 25.0589 115.029 24.5255L115.157 27.0535V31.7895H110.773ZM117.909 22.6055C118.485 22.6055 119.019 22.4349 119.509 22.0935C120 21.7309 120.384 21.1869 120.661 20.4615C120.939 19.7362 121.077 18.8082 121.077 17.6775C121.077 16.7175 120.971 15.9069 120.757 15.2455C120.544 14.5629 120.213 14.0509 119.765 13.7095C119.339 13.3682 118.795 13.1975 118.133 13.1975C117.621 13.1975 117.131 13.3149 116.661 13.5495C116.192 13.7842 115.691 14.1789 115.157 14.7335V21.4855C115.627 21.8909 116.096 22.1789 116.565 22.3495C117.056 22.5202 117.504 22.6055 117.909 22.6055ZM131.711 26.1895C130.666 26.1895 129.589 25.9869 128.479 25.5815C127.391 25.1549 126.453 24.6215 125.663 23.9815L127.647 21.2295C128.373 21.7629 129.077 22.1789 129.759 22.4775C130.442 22.7762 131.135 22.9255 131.839 22.9255C132.586 22.9255 133.13 22.7869 133.471 22.5095C133.813 22.2322 133.983 21.8589 133.983 21.3895C133.983 21.0269 133.823 20.7175 133.503 20.4615C133.205 20.1842 132.799 19.9495 132.287 19.7575C131.797 19.5442 131.274 19.3309 130.719 19.1175C130.058 18.8615 129.397 18.5415 128.735 18.1575C128.095 17.7735 127.551 17.2829 127.103 16.6855C126.677 16.0882 126.463 15.3522 126.463 14.4775C126.463 13.0269 127.007 11.8535 128.095 10.9575C129.183 10.0402 130.623 9.58154 132.415 9.58154C133.61 9.58154 134.655 9.78421 135.551 10.1895C136.447 10.5949 137.226 11.0535 137.887 11.5655L135.935 14.2215C135.359 13.7949 134.794 13.4642 134.239 13.2295C133.685 12.9735 133.119 12.8455 132.543 12.8455C131.882 12.8455 131.381 12.9842 131.039 13.2615C130.719 13.5175 130.559 13.8589 130.559 14.2855C130.559 14.6269 130.709 14.9149 131.007 15.1495C131.306 15.3842 131.701 15.5975 132.191 15.7895C132.682 15.9815 133.205 16.1735 133.759 16.3655C134.442 16.6215 135.114 16.9415 135.775 17.3255C136.437 17.6882 136.991 18.1789 137.439 18.7975C137.887 19.3949 138.111 20.1735 138.111 21.1335C138.111 22.0722 137.866 22.9255 137.375 23.6935C136.885 24.4615 136.159 25.0695 135.199 25.5175C134.261 25.9655 133.098 26.1895 131.711 26.1895ZM143.982 26.1895C142.297 26.1895 141.059 25.6242 140.27 24.4935C139.481 23.3629 139.086 21.8055 139.086 19.8215V9.96554H143.47V19.2775C143.47 20.4722 143.641 21.3042 143.982 21.7735C144.345 22.2215 144.889 22.4455 145.614 22.4455C146.233 22.4455 146.766 22.3069 147.214 22.0295C147.662 21.7309 148.131 21.2402 148.622 20.5575V9.96554H153.006V25.8055H149.422L149.102 23.5655H149.006C148.323 24.3762 147.587 25.0162 146.798 25.4855C146.009 25.9549 145.07 26.1895 143.982 26.1895ZM155.42 25.8055V9.96554H159.004L159.324 12.0455H159.452C160.092 11.3842 160.796 10.8082 161.564 10.3175C162.332 9.82687 163.228 9.58154 164.252 9.58154C165.382 9.58154 166.3 9.82687 167.004 10.3175C167.708 10.7869 168.252 11.4482 168.636 12.3015C169.34 11.5549 170.086 10.9149 170.876 10.3815C171.686 9.84821 172.604 9.58154 173.628 9.58154C175.334 9.58154 176.582 10.1469 177.372 11.2775C178.161 12.4082 178.556 13.9655 178.556 15.9495V25.8055H174.172V16.5255C174.172 15.3309 174.001 14.4989 173.66 14.0295C173.34 13.5602 172.817 13.3255 172.092 13.3255C171.644 13.3255 171.185 13.4642 170.716 13.7415C170.246 14.0189 169.734 14.4455 169.18 15.0215V25.8055H164.796V16.5255C164.796 15.3309 164.625 14.4989 164.284 14.0295C163.964 13.5602 163.441 13.3255 162.716 13.3255C161.841 13.3255 160.87 13.8909 159.804 15.0215V25.8055H155.42Z" fill="#7D7D7D"/>
</svg>
