<svg width="129" height="32" viewBox="0 0 129 32" fill="none" xmlns="http://www.w3.org/2000/svg">
<path d="M32.3606 16.4716L16.8591 16.4716L16.8591 31.9731" stroke="#7D7D7D" stroke-width="4" stroke-linejoin="bevel"/>
<path d="M0 15.5015L15.5015 15.5015L15.5015 -5.09228e-06" stroke="#7D7D7D" stroke-width="4" stroke-linejoin="bevel"/>
<line x1="17.7293" y1="16.8994" x2="27.0463" y2="26.2164" stroke="#7D7D7D" stroke-width="4"/>
<line x1="5.67642" y1="4.84647" x2="14.9935" y2="14.1635" stroke="#7D7D7D" stroke-width="4"/>
<line x1="27.8064" y1="3.7517" x2="19.4364" y2="12.3916" stroke="#7D7D7D" stroke-width="4"/>
<line x1="4.56352" y1="28.2483" x2="12.9335" y2="19.6084" stroke="#7D7D7D" stroke-width="4"/>
<path d="M45.4486 27.9866C44.5099 27.9866 43.7526 27.7199 43.1766 27.1866C42.6219 26.6319 42.3446 25.9066 42.3446 25.0106V5.58657H46.7606V24.1466H58.9206V27.9866H45.4486ZM68.2173 28.2426C66.532 28.2426 65.0387 27.8906 63.7373 27.1866C62.4573 26.4612 61.4547 25.4586 60.7293 24.1786C60.0253 22.8772 59.6733 21.3732 59.6733 19.6666V13.9066C59.6733 12.1999 60.0253 10.7066 60.7293 9.42657C61.4547 8.12524 62.4573 7.12257 63.7373 6.41857C65.0387 5.69324 66.532 5.33057 68.2173 5.33057H71.6093C73.2947 5.33057 74.7773 5.69324 76.0573 6.41857C77.3587 7.12257 78.3613 8.12524 79.0653 9.42657C79.7907 10.7066 80.1533 12.1999 80.1533 13.9066V19.6666C80.1533 21.3732 79.7907 22.8772 79.0653 24.1786C78.3613 25.4586 77.3587 26.4612 76.0573 27.1866C74.7773 27.8906 73.2947 28.2426 71.6093 28.2426H68.2173ZM71.6093 24.3386C72.8467 24.3386 73.8387 23.8906 74.5853 22.9946C75.3533 22.0986 75.7373 20.9252 75.7373 19.4746V14.0986C75.7373 12.6479 75.3533 11.4746 74.5853 10.5786C73.8387 9.68257 72.8467 9.23457 71.6093 9.23457H68.2173C66.98 9.23457 65.9773 9.68257 65.2093 10.5786C64.4627 11.4746 64.0893 12.6479 64.0893 14.0986V19.4746C64.0893 20.9252 64.4627 22.0986 65.2093 22.9946C65.9773 23.8906 66.98 24.3386 68.2173 24.3386H71.6093ZM91.1496 28.2426C89.5069 28.2426 88.0563 27.8906 86.7976 27.1866C85.5389 26.4826 84.5576 25.4906 83.8536 24.2106C83.1709 22.9092 82.8296 21.4159 82.8296 19.7306V13.8426C82.8296 12.1572 83.1709 10.6746 83.8536 9.39457C84.5576 8.09324 85.5389 7.09057 86.7976 6.38657C88.0776 5.68257 89.5496 5.33057 91.2136 5.33057H94.7976C96.3976 5.33057 97.8056 5.65057 99.0216 6.29057C100.238 6.93057 101.176 7.83724 101.838 9.01057C102.52 10.1839 102.862 11.5386 102.862 13.0746H98.5096C98.5096 11.9226 98.1683 10.9946 97.4856 10.2906C96.8029 9.58657 95.9069 9.23457 94.7976 9.23457H91.2136C90.0189 9.23457 89.0589 9.68257 88.3336 10.5786C87.6083 11.4532 87.2456 12.6052 87.2456 14.0346V19.5386C87.2456 20.9679 87.5976 22.1306 88.3016 23.0266C89.0269 23.9012 89.9763 24.3386 91.1496 24.3386H94.9256C96.0136 24.3386 96.9096 23.9439 97.6136 23.1546C98.3389 22.3652 98.7016 21.3839 98.7016 20.2106V19.5066H92.4936V15.6666H103.054V20.2106C103.054 21.7679 102.712 23.1546 102.03 24.3706C101.347 25.5866 100.387 26.5359 99.1496 27.2186C97.9123 27.9012 96.5043 28.2426 94.9256 28.2426H91.1496ZM114.155 28.2426C112.47 28.2426 110.976 27.8906 109.675 27.1866C108.395 26.4612 107.392 25.4586 106.667 24.1786C105.963 22.8772 105.611 21.3732 105.611 19.6666V13.9066C105.611 12.1999 105.963 10.7066 106.667 9.42657C107.392 8.12524 108.395 7.12257 109.675 6.41857C110.976 5.69324 112.47 5.33057 114.155 5.33057H117.547C119.232 5.33057 120.715 5.69324 121.995 6.41857C123.296 7.12257 124.299 8.12524 125.003 9.42657C125.728 10.7066 126.091 12.1999 126.091 13.9066V19.6666C126.091 21.3732 125.728 22.8772 125.003 24.1786C124.299 25.4586 123.296 26.4612 121.995 27.1866C120.715 27.8906 119.232 28.2426 117.547 28.2426H114.155ZM117.547 24.3386C118.784 24.3386 119.776 23.8906 120.523 22.9946C121.291 22.0986 121.675 20.9252 121.675 19.4746V14.0986C121.675 12.6479 121.291 11.4746 120.523 10.5786C119.776 9.68257 118.784 9.23457 117.547 9.23457H114.155C112.918 9.23457 111.915 9.68257 111.147 10.5786C110.4 11.4746 110.027 12.6479 110.027 14.0986V19.4746C110.027 20.9252 110.4 22.0986 111.147 22.9946C111.915 23.8906 112.918 24.3386 114.155 24.3386H117.547Z" fill="#7D7D7D"/>
</svg>
