<svg width="184" height="32" viewBox="0 0 184 32" fill="none" xmlns="http://www.w3.org/2000/svg">
<path d="M29.0232 12.6514H7.8139C4.32038 12.6514 1.48832 9.81931 1.48832 6.32579C1.48832 2.83227 4.32038 0.000209808 7.8139 0.000209808H29.0232V12.6514Z" fill="#0084FF"/>
<path d="M6.32558 16C5.2093 16 0 15.8139 3.49692e-07 7.99999C6.99383e-07 0.186039 7.6279 -3.48127e-06 7.6279 -3.48127e-06C7.6279 -3.48127e-06 10.6046 12.6511 7.44186 12.6512C4.27907 12.6512 7.44186 16 6.32558 16Z" fill="#0084FF"/>
<path d="M0 19.3486H21.2093C24.7028 19.3486 27.5349 22.1807 27.5349 25.6742C27.5349 29.1677 24.7028 31.9998 21.2093 31.9998H0V19.3486Z" fill="#0084FF"/>
<path d="M22.6976 16C23.8139 16 29.0232 16.1861 29.0232 24C29.0232 31.814 21.3953 32 21.3953 32C21.3953 32 18.4185 19.3489 21.5813 19.3488C24.7441 19.3488 21.5813 16 22.6976 16Z" fill="#0084FF"/>
<path d="M41.8872 19.284C42.0152 19.8173 42.2285 20.2227 42.5272 20.5C42.8472 20.7773 43.1992 20.98 43.5832 21.108C43.9885 21.2147 44.3939 21.268 44.7992 21.268C45.5459 21.268 46.1325 21.1293 46.5592 20.852C46.9859 20.5533 47.1992 20.18 47.1992 19.732C47.1992 19.348 47.0499 19.0493 46.7512 18.836C46.4525 18.6013 46.0685 18.4307 45.5992 18.324C45.1299 18.196 44.6499 18.068 44.1592 17.94C43.5832 17.7907 42.9645 17.6307 42.3032 17.46C41.6632 17.268 41.0552 17.0013 40.4792 16.66C39.9032 16.3187 39.4232 15.8813 39.0392 15.348C38.6552 14.7933 38.4632 14.1 38.4632 13.268C38.4632 12.2867 38.7299 11.4227 39.2632 10.676C39.8179 9.92933 40.5752 9.34267 41.5352 8.916C42.5165 8.48933 43.6472 8.276 44.9272 8.276C46.4419 8.276 47.7219 8.596 48.7672 9.236C49.8125 9.876 50.5699 10.7933 51.0392 11.988L47.4232 13.012C47.3165 12.7133 47.1352 12.468 46.8792 12.276C46.6232 12.084 46.3139 11.9453 45.9512 11.86C45.6099 11.7747 45.2579 11.732 44.8952 11.732C44.2765 11.732 43.7645 11.86 43.3592 12.116C42.9539 12.3507 42.7512 12.6813 42.7512 13.108C42.7512 13.364 42.8259 13.5773 42.9752 13.748C43.1245 13.8973 43.3272 14.0253 43.5832 14.132C43.8605 14.2387 44.1699 14.3347 44.5112 14.42C44.8739 14.5053 45.2685 14.6013 45.6952 14.708C46.3565 14.8787 47.0179 15.0813 47.6792 15.316C48.3619 15.5293 48.9805 15.8067 49.5352 16.148C50.1112 16.4893 50.5699 16.948 50.9112 17.524C51.2525 18.1 51.4445 18.8253 51.4872 19.7C51.4872 20.6387 51.2205 21.492 50.6872 22.26C50.1539 23.0067 49.3859 23.604 48.3832 24.052C47.3805 24.5 46.1645 24.724 44.7352 24.724C43.0712 24.724 41.6525 24.372 40.4792 23.668C39.3272 22.964 38.5699 21.8653 38.2072 20.372L41.8872 19.284ZM63.6882 8.5H68.0722L58.6322 30.9H54.5042L57.5122 23.924L51.2082 8.5H55.7842L59.6882 19.028L63.6882 8.5ZM68.6047 8.5H72.3167L72.6047 10.132C73.1167 9.556 73.7354 9.108 74.4607 8.788C75.2074 8.44667 76.0074 8.276 76.8607 8.276C78.1194 8.276 79.186 8.54267 80.0607 9.076C80.9567 9.60933 81.6394 10.388 82.1087 11.412C82.5994 12.4147 82.8447 13.6627 82.8447 15.156V24.5H78.7167V15.7C78.7167 14.4627 78.4714 13.5347 77.9807 12.916C77.49 12.2973 76.754 11.988 75.7727 11.988C74.77 11.988 74.002 12.308 73.4687 12.948C72.9567 13.5667 72.7007 14.4947 72.7007 15.732V24.5H68.6047V8.5ZM91.6622 24.724C90.1049 24.724 88.7395 24.3827 87.5662 23.7C86.3929 23.0173 85.4755 22.068 84.8142 20.852C84.1529 19.6147 83.8222 18.1853 83.8222 16.564C83.8222 14.9213 84.1529 13.4813 84.8142 12.244C85.4755 11.0067 86.4035 10.036 87.5982 9.332C88.7929 8.628 90.1689 8.276 91.7262 8.276C93.4115 8.276 94.9049 8.692 96.2062 9.524C97.5289 10.356 98.4569 11.476 98.9902 12.884L95.1822 13.972C94.9262 13.3533 94.4995 12.8627 93.9022 12.5C93.3262 12.1373 92.6649 11.956 91.9182 11.956C91.1715 11.956 90.5102 12.148 89.9342 12.532C89.3795 12.916 88.9422 13.4493 88.6222 14.132C88.3235 14.8147 88.1742 15.6147 88.1742 16.532C88.1742 17.9187 88.5155 19.0173 89.1982 19.828C89.8809 20.6387 90.7982 21.044 91.9502 21.044C92.6755 21.044 93.3369 20.8733 93.9342 20.532C94.5315 20.1693 94.9795 19.6787 95.2782 19.06L99.0542 20.148C98.4782 21.5347 97.5182 22.644 96.1742 23.476C94.8515 24.308 93.3475 24.724 91.6622 24.724ZM100.265 1.46H104.361V10.068C104.851 9.53467 105.459 9.108 106.185 8.788C106.931 8.44667 107.763 8.276 108.681 8.276C109.897 8.276 110.953 8.54267 111.849 9.076C112.766 9.60933 113.47 10.388 113.961 11.412C114.451 12.4147 114.697 13.6627 114.697 15.156V24.5H110.377V15.7C110.377 14.4627 110.131 13.5347 109.641 12.916C109.15 12.2973 108.414 11.988 107.433 11.988C106.43 11.988 105.662 12.3293 105.129 13.012C104.617 13.6733 104.361 14.6227 104.361 15.86V24.5H100.265V1.46ZM116.501 8.5H120.213L120.501 10.548C120.949 9.99333 121.45 9.54533 122.005 9.204C122.581 8.84133 123.21 8.596 123.893 8.468C124.576 8.31867 125.29 8.32933 126.037 8.5V12.34C125.461 12.148 124.853 12.0947 124.213 12.18C123.594 12.2653 123.008 12.4893 122.453 12.852C121.92 13.2147 121.472 13.7373 121.109 14.42C120.768 15.0813 120.597 15.924 120.597 16.948V24.5H116.501V8.5ZM134.001 24.724C132.444 24.724 131.057 24.3933 129.841 23.732C128.625 23.0493 127.665 22.1 126.961 20.884C126.279 19.6467 125.937 18.196 125.937 16.532C125.937 14.8467 126.289 13.3853 126.993 12.148C127.719 10.9107 128.7 9.96133 129.937 9.3C131.175 8.61733 132.561 8.276 134.097 8.276C135.633 8.276 137.02 8.61733 138.257 9.3C139.495 9.96133 140.476 10.9107 141.201 12.148C141.927 13.364 142.289 14.804 142.289 16.468C142.289 18.1533 141.916 19.6147 141.169 20.852C140.444 22.0893 139.452 23.0493 138.193 23.732C136.956 24.3933 135.559 24.724 134.001 24.724ZM133.969 21.044C134.631 21.044 135.26 20.884 135.857 20.564C136.455 20.2227 136.945 19.7213 137.329 19.06C137.713 18.3773 137.905 17.5133 137.905 16.468C137.905 15.4653 137.724 14.6333 137.361 13.972C136.999 13.2893 136.519 12.788 135.921 12.468C135.345 12.1267 134.716 11.956 134.033 11.956C133.372 11.956 132.753 12.1267 132.177 12.468C131.623 12.788 131.175 13.2893 130.833 13.972C130.513 14.6333 130.353 15.4867 130.353 16.532C130.353 17.5347 130.513 18.3773 130.833 19.06C131.153 19.7213 131.591 20.2227 132.145 20.564C132.7 20.884 133.308 21.044 133.969 21.044ZM143.505 8.5H147.217L147.505 10.132C148.017 9.556 148.635 9.108 149.361 8.788C150.107 8.44667 150.907 8.276 151.761 8.276C153.019 8.276 154.086 8.54267 154.961 9.076C155.857 9.60933 156.539 10.388 157.009 11.412C157.499 12.4147 157.745 13.6627 157.745 15.156V24.5H153.617V15.7C153.617 14.4627 153.371 13.5347 152.881 12.916C152.39 12.2973 151.654 11.988 150.673 11.988C149.67 11.988 148.902 12.308 148.369 12.948C147.857 13.5667 147.601 14.4947 147.601 15.732V24.5H143.505V8.5ZM166.786 24.724C165.229 24.724 163.842 24.3933 162.626 23.732C161.41 23.0493 160.45 22.1 159.746 20.884C159.064 19.6467 158.722 18.196 158.722 16.532C158.722 14.8467 159.074 13.3853 159.778 12.148C160.504 10.9107 161.485 9.96133 162.722 9.3C163.96 8.61733 165.346 8.276 166.882 8.276C168.418 8.276 169.805 8.61733 171.042 9.3C172.28 9.96133 173.261 10.9107 173.986 12.148C174.712 13.364 175.074 14.804 175.074 16.468C175.074 18.1533 174.701 19.6147 173.954 20.852C173.229 22.0893 172.237 23.0493 170.978 23.732C169.741 24.3933 168.344 24.724 166.786 24.724ZM166.754 21.044C167.416 21.044 168.045 20.884 168.642 20.564C169.24 20.2227 169.73 19.7213 170.114 19.06C170.498 18.3773 170.69 17.5133 170.69 16.468C170.69 15.4653 170.509 14.6333 170.146 13.972C169.784 13.2893 169.304 12.788 168.706 12.468C168.13 12.1267 167.501 11.956 166.818 11.956C166.157 11.956 165.538 12.1267 164.962 12.468C164.408 12.788 163.96 13.2893 163.618 13.972C163.298 14.6333 163.138 15.4867 163.138 16.532C163.138 17.5347 163.298 18.3773 163.618 19.06C163.938 19.7213 164.376 20.2227 164.93 20.564C165.485 20.884 166.093 21.044 166.754 21.044ZM178.626 24.724C177.836 24.724 177.186 24.4787 176.674 23.988C176.183 23.476 175.938 22.868 175.938 22.164C175.938 21.4387 176.183 20.8307 176.674 20.34C177.186 19.828 177.836 19.572 178.626 19.572C179.394 19.572 180.023 19.828 180.514 20.34C181.026 20.8307 181.282 21.4387 181.282 22.164C181.282 22.868 181.026 23.476 180.514 23.988C180.023 24.4787 179.394 24.724 178.626 24.724Z" fill="#0084FF"/>
</svg>
