<svg width="30" height="32" viewBox="0 0 30 32" fill="none" xmlns="http://www.w3.org/2000/svg">
<path d="M29.0232 12.6512H7.8139C4.32038 12.6512 1.48832 9.81911 1.48832 6.32559V6.32559C1.48832 2.83207 4.32038 1.14441e-05 7.8139 1.14441e-05H29.0232V12.6512Z" fill="#0084FF"/>
<path d="M6.32558 16C5.2093 16 0 15.8139 3.49692e-07 7.99999C6.99383e-07 0.186043 7.6279 6.79276e-07 7.6279 6.79276e-07C7.6279 6.79276e-07 10.6046 12.6511 7.44186 12.6512C4.27907 12.6512 7.44186 16 6.32558 16Z" fill="#0084FF"/>
<path d="M0 19.3489H21.2093C24.7028 19.3489 27.5349 22.1809 27.5349 25.6744V25.6744C27.5349 29.168 24.7028 32 21.2093 32H0V19.3489Z" fill="#0084FF"/>
<path d="M22.6976 16C23.8139 16 29.0232 16.1861 29.0232 24C29.0232 31.814 21.3953 32 21.3953 32C21.3953 32 18.4185 19.3489 21.5813 19.3489C24.7441 19.3489 21.5813 16 22.6976 16Z" fill="#0084FF"/>
</svg>
