<svg width="22" height="24" viewBox="0 0 22 24" fill="none" xmlns="http://www.w3.org/2000/svg">
<path d="M21.7673 9.4884H5.86037C3.24023 9.4884 1.11618 7.36436 1.11618 4.74422C1.11618 2.12408 3.24022 3.43323e-05 5.86037 3.43323e-05H21.7673V9.4884Z" fill="white"/>
<path d="M4.74418 12C3.90697 12 0 11.8605 2.62269e-07 5.99999C5.24537e-07 0.139528 5.72093 -3.56463e-06 5.72093 -3.56463e-06C5.72093 -3.56463e-06 7.95348 9.48836 5.58139 9.48836C3.2093 9.48837 5.58139 12 4.74418 12Z" fill="white"/>
<path d="M0 14.5116H15.907C18.5271 14.5116 20.6512 16.6356 20.6512 19.2558C20.6512 21.8759 18.5271 24 15.907 24H0V14.5116Z" fill="white"/>
<path d="M17.0232 12C17.8604 12 21.7673 12.1395 21.7673 18C21.7673 23.8605 16.0464 24 16.0464 24C16.0464 24 13.8138 14.5116 16.1859 14.5116C18.558 14.5116 16.1859 12 17.0232 12Z" fill="white"/>
</svg>
